<?xml version="1.0" standalone="no"?>
<!DOCTYPE svg PUBLIC "-//W3C//DTD SVG 20010904//EN"
 "http://www.w3.org/TR/2001/REC-SVG-20010904/DTD/svg10.dtd">
<svg version="1.0" xmlns="http://www.w3.org/2000/svg"
 width="1300.000000pt" height="1300.000000pt" viewBox="0 0 1300.000000 1300.000000"
 preserveAspectRatio="xMidYMid meet">
<metadata>
Created by potrace 1.11, written by Peter Selinger 2001-2013
</metadata>
<g transform="translate(0.000000,1300.000000) scale(0.100000,-0.100000)"
fill="#000000" stroke="none">
<path d="M6464 11551 c-49 -12 -90 -47 -108 -91 -14 -35 -16 -107 -16 -581 0
-518 1 -541 20 -579 30 -58 74 -85 140 -85 68 0 114 29 141 89 17 38 19 76 19
581 0 505 -2 543 -19 581 -29 65 -107 102 -177 85z"/>
<path d="M4199 10937 c-18 -12 -44 -38 -57 -57 -40 -59 -28 -111 58 -260 79
-135 152 -262 335 -580 125 -217 143 -243 189 -267 72 -37 182 1 212 72 33 81
33 83 -201 485 -43 74 -97 169 -120 210 -169 299 -219 377 -257 400 -46 28
-115 27 -159 -3z"/>
<path d="M8634 10931 c-21 -15 -53 -52 -70 -82 -17 -30 -66 -115 -109 -189
-43 -74 -102 -175 -130 -225 -29 -49 -95 -164 -147 -255 -53 -91 -103 -179
-112 -197 -32 -65 -13 -152 43 -192 102 -73 198 -34 279 114 21 39 72 129 114
200 41 72 110 191 153 265 43 74 110 189 148 255 83 143 95 197 55 255 -57 84
-150 105 -224 51z"/>
<path d="M6320 9614 c-563 -51 -1043 -239 -1455 -571 -206 -167 -430 -421
-567 -645 -134 -218 -259 -536 -306 -778 -66 -332 -60 -727 14 -1059 86 -384
218 -702 544 -1306 158 -293 293 -554 310 -595 7 -19 31 -71 53 -114 76 -154
186 -449 247 -665 74 -263 108 -457 134 -759 15 -167 22 -186 84 -229 48 -32
137 -34 1227 -31 1075 3 1000 -1 1058 68 30 35 30 36 52 274 36 404 128 759
308 1196 50 122 267 558 397 800 333 618 457 901 550 1265 99 386 113 797 38
1160 -50 246 -187 587 -316 790 -143 225 -362 472 -557 628 -383 307 -809 487
-1320 557 -84 11 -418 21 -495 14z m414 -324 c351 -34 737 -172 1034 -372 636
-427 997 -1119 969 -1857 -12 -303 -71 -570 -202 -907 -58 -149 -233 -504
-405 -824 -145 -266 -330 -639 -385 -775 -19 -47 -51 -123 -70 -170 -127 -310
-229 -721 -275 -1103 l-12 -102 -262 2 -261 3 -3 915 c-2 571 1 968 8 1056 29
398 167 753 414 1064 77 97 192 215 288 296 l76 64 53 -32 c47 -30 60 -33 128
-33 64 1 85 5 131 29 141 74 272 276 246 381 -10 40 -33 30 -62 -27 -92 -182
-258 -338 -332 -312 -82 29 -40 183 127 465 74 124 73 123 113 202 54 105 49
269 -9 291 -22 9 -36 -6 -86 -90 l-45 -74 -11 47 c-32 127 -143 152 -308 70
-157 -78 -394 -355 -458 -536 -43 -122 -227 -300 -362 -351 -71 -26 -157 -27
-200 0 -41 24 -73 88 -80 154 -4 45 18 190 32 204 2 3 33 -10 67 -29 54 -28
73 -33 133 -33 61 -1 78 3 133 33 73 40 155 127 197 211 29 57 44 162 31 214
-9 38 -63 94 -130 138 -82 53 -143 53 -246 2 -198 -100 -400 -407 -400 -611 0
-50 -29 -101 -110 -192 -80 -90 -146 -129 -196 -117 -37 10 -47 47 -33 119 17
83 172 389 389 767 192 334 230 421 230 526 0 62 -22 124 -44 124 -8 0 -28
-19 -44 -42 -47 -69 -182 -302 -267 -458 -43 -80 -91 -167 -106 -193 l-26 -48
-7 40 c-8 54 -59 107 -111 117 -103 19 -259 -61 -396 -203 -139 -144 -215
-262 -265 -409 -56 -169 -211 -334 -313 -334 -37 0 -61 31 -61 80 0 55 51 187
122 316 125 230 159 306 165 371 6 67 -7 121 -37 148 -17 15 -22 16 -37 4 -49
-41 -237 -372 -306 -540 -83 -201 -87 -312 -16 -394 39 -44 85 -59 173 -53 58
4 85 12 144 43 39 20 88 55 108 77 19 22 37 38 38 36 1 -1 10 -22 21 -46 10
-24 37 -58 64 -79 25 -20 90 -80 144 -132 351 -341 554 -762 596 -1236 5 -55
8 -527 7 -1050 l-1 -950 -262 -3 -261 -3 -7 58 c-47 410 -148 827 -281 1151
-20 48 -46 112 -59 142 -70 173 -241 516 -427 860 -100 185 -275 532 -321 638
-184 420 -268 816 -253 1187 22 557 248 1056 661 1458 189 185 476 368 735
470 168 66 419 128 590 146 122 12 357 13 484 1z m221 -1883 c15 -58 -93 -249
-188 -332 -59 -52 -109 -71 -162 -61 -48 9 -53 29 -24 85 105 200 351 402 374
308z m-935 -22 c36 -95 -196 -567 -346 -705 -54 -50 -126 -84 -159 -76 -31 8
-49 63 -41 126 30 223 255 547 460 662 46 25 75 23 86 -7z m1811 -2 c11 -29 7
-60 -18 -138 -55 -172 -248 -488 -355 -579 -115 -99 -185 -84 -181 37 3 101
62 247 156 387 159 234 363 385 398 293z m-697 -771 c24 -46 86 -84 147 -90
l51 -5 -55 -56 c-248 -257 -435 -603 -520 -966 -50 -211 -50 -210 -54 -1292
l-4 -1023 -199 0 -199 0 -4 1033 c-5 1118 -3 1084 -61 1314 -40 157 -93 297
-164 437 -100 199 -205 346 -361 510 l-75 78 29 21 c17 12 56 46 88 76 51 48
57 52 57 31 0 -47 40 -109 88 -137 38 -22 58 -27 117 -28 96 0 180 41 260 126
53 58 57 60 70 43 8 -11 15 -22 15 -26 1 -19 68 -82 110 -103 107 -54 246 -52
386 6 75 31 167 92 214 142 l25 26 11 -42 c6 -23 18 -57 28 -75z"/>
<path d="M5271 7777 c-59 -72 -43 -195 30 -232 45 -24 79 -16 106 24 40 60 25
155 -32 199 -31 25 -87 29 -104 9z"/>
<path d="M2635 9333 c-125 -22 -181 -159 -105 -256 11 -14 44 -39 73 -55 28
-16 106 -61 172 -99 66 -39 212 -123 325 -188 113 -64 246 -142 296 -172 78
-46 99 -54 143 -55 90 0 150 53 159 140 9 101 -6 115 -308 287 -85 48 -207
118 -270 155 -207 121 -355 207 -380 220 -32 17 -80 27 -105 23z"/>
<path d="M10179 9264 c-62 -37 -143 -84 -179 -104 -36 -20 -123 -71 -195 -112
-71 -42 -186 -108 -255 -147 -226 -130 -250 -153 -250 -238 0 -89 65 -153 157
-153 48 0 66 7 151 56 123 72 414 240 647 374 99 56 188 110 199 119 75 65 58
213 -30 255 -70 33 -118 23 -245 -50z"/>
<path d="M1976 7087 c-21 -12 -47 -38 -57 -57 -40 -74 -14 -167 57 -207 l39
-23 553 0 c615 0 600 -2 646 66 50 74 28 178 -46 224 -32 19 -52 20 -593 20
l-560 0 -39 -23z"/>
<path d="M9832 7090 c-74 -46 -96 -150 -46 -224 46 -68 31 -66 646 -66 l553 0
39 23 c21 12 47 38 57 57 40 74 14 167 -57 207 l-39 23 -560 0 c-541 0 -561
-1 -593 -20z"/>
<path d="M3505 5401 c-16 -4 -102 -49 -190 -100 -88 -52 -203 -118 -255 -148
-552 -315 -560 -321 -560 -417 0 -90 62 -156 147 -156 56 0 78 9 213 89 63 38
219 128 345 201 373 214 430 249 454 271 60 56 55 165 -11 226 -19 17 -90 45
-108 42 -3 -1 -18 -4 -35 -8z"/>
<path d="M9423 5400 c-75 -17 -123 -76 -123 -151 0 -79 42 -123 210 -216 58
-32 129 -73 310 -178 30 -17 87 -50 125 -72 39 -22 124 -72 190 -111 140 -83
162 -92 219 -92 134 0 201 183 100 271 -11 9 -122 76 -249 149 -126 73 -282
163 -345 200 -361 210 -372 215 -437 200z"/>
<path d="M5430 2688 c-64 -33 -85 -67 -85 -138 0 -50 4 -63 31 -97 18 -22 47
-43 69 -51 29 -9 262 -12 1075 -10 1031 3 1039 3 1066 24 53 39 69 71 69 134
0 63 -16 95 -69 134 -27 21 -35 21 -1069 24 l-1042 2 -45 -22z"/>
<path d="M5537 2225 c-72 -25 -107 -75 -107 -151 0 -56 27 -104 74 -133 33
-21 43 -21 996 -21 953 0 963 0 996 21 88 54 102 183 27 251 -54 49 -28 48
-1020 47 -755 0 -935 -3 -966 -14z"/>
<path d="M5944 1746 c-64 -28 -103 -114 -85 -184 14 -49 68 -101 117 -113 54
-12 1010 -12 1053 1 47 13 99 66 112 112 19 71 -22 157 -87 184 -48 20 -1064
20 -1110 0z"/>
</g>
</svg>
